<svg version="1" xmlns="http://www.w3.org/2000/svg" width="693.333" height="693.333" viewBox="0 0 520.000000 520.000000"><path d="M259 13.7c0 .6-1.9 4.4-4.3 8.5-2.4 4-5.5 9.3-6.9 11.8-1.4 2.5-5.7 9.9-9.5 16.5-3.9 6.6-11.3 19.4-16.5 28.5-5.3 9.1-18 31.1-28.3 49-10.4 17.9-19.6 33.8-20.5 35.5-2.6 4.5-22.8 39.5-29.5 51-24.1 41.6-77.6 134.3-82 142-1.2 2.2-5.4 9.4-9.2 16-10.2 17.6-32.7 56.4-35.1 60.5C8.3 448.6 4 456 2.1 459.2L-.2 463h520.4l-2-3.3c-1.1-1.7-9.7-16.7-19.2-33.2-9.6-16.5-22.9-39.7-29.8-51.5-6.9-11.8-13.6-23.5-15-26-1.3-2.5-2.8-5-3.2-5.5-.4-.6-1.9-3-3.2-5.5-1.4-2.5-4.9-8.6-7.8-13.5-2.9-5-6.4-11-7.8-13.5-1.4-2.5-4.2-7.4-6.4-10.9-2.1-3.4-3.8-6.5-3.8-6.8 0-.3-1.8-3.4-4-6.9-2.2-3.5-4-6.6-4-6.8 0-.3-2.5-4.6-5.5-9.6s-5.5-9.2-5.5-9.4c0-.2-4.6-8.1-10.1-17.7-5.6-9.6-11.3-19.4-12.7-21.9-3-5.4-29.8-51.8-31.2-54-.5-.8-4.6-8-9.2-15.9-11.7-20.3-12.5-21.8-17.1-29.6-2.3-3.9-4.8-8.4-5.7-10-.9-1.7-2.6-4.6-3.7-6.5-2-3.4-14.9-25.7-18.3-31.5-19.1-33.3-34.3-59.2-35.1-60-.6-.5-.9-.5-.9.2zm11.1 108.5c5.1 9 15.4 26.9 22.9 39.8 11.4 19.6 48.1 83.2 54 93.5 12.7 22.2 28.7 49.6 30.2 51.7 1.1 1.6 1.6 2.8 1.2 2.8-.4 0 0 .8.8 1.7.8 1 4.5 7.2 8.3 13.8 3.8 6.6 10.5 18.3 15 26 4.5 7.7 9.3 16 10.7 18.5 1.4 2.5 8 13.9 14.7 25.4 6.6 11.5 12.1 21.1 12.1 21.3 0 .2-81 .3-180 .3s-180-.2-180-.4c0-.3 19.9-34.8 28-48.6 4.1-7 65.4-113.2 68.6-118.9 1-1.8 2.4-4.1 2.9-5 .8-1.2 15.6-26.8 21-36.3.6-1 4.9-8.4 9.6-16.5 12.9-22.4 35.3-61 36.4-63.1 4.4-8.1 13.1-22.2 13.6-22.2.3 0 4.8 7.3 10 16.2z"/><path d="M252.4 200.1c-9.4 16.6-10.6 18.6-18.9 32.9-4 6.9-8.2 14.1-9.3 16-1.1 1.9-4.3 7.5-7.2 12.5-2.9 4.9-6.4 11-7.7 13.4-3.7 6.4-30.8 53.5-35.3 61.1-3 5.1-20.9 36.2-22.6 39.2-.2.3 48.4.6 108.1.6 59.7 0 108.5-.3 108.5-.6 0-.4-1.6-3.3-3.5-6.5s-3.5-6-3.5-6.2c0-.2-3.9-7-8.6-15.2-4.8-8.1-9.6-16.4-10.7-18.3-1-1.9-4.3-7.6-7.2-12.5-5.2-8.9-25.9-44.8-29.7-51.5-1.1-1.9-3.2-5.5-4.7-8-1.4-2.5-3.3-5.7-4.1-7.2-9.9-17.7-35.6-61.7-36.1-61.8-.3 0-3.6 5.5-7.5 12.1z"/></svg>